<svg id="visual" viewBox="0 0 960 540" width="960" height="540" xmlns="http://www.w3.org/2000/svg" xmlns:xlink="http://www.w3.org/1999/xlink" version="1.1"><rect x="0" y="0" width="960" height="540" fill="#001220"></rect><defs><linearGradient id="grad1_0" x1="43.8%" y1="0%" x2="100%" y2="100%"><stop offset="14.444444444444446%" stop-color="#001220" stop-opacity="1"></stop><stop offset="85.55555555555554%" stop-color="#001220" stop-opacity="1"></stop></linearGradient></defs><defs><linearGradient id="grad2_0" x1="0%" y1="0%" x2="56.3%" y2="100%"><stop offset="14.444444444444446%" stop-color="#001220" stop-opacity="1"></stop><stop offset="85.55555555555554%" stop-color="#001220" stop-opacity="1"></stop></linearGradient></defs><g transform="translate(960, 0)"><path d="M0 243C-28.5 226.4 -57 209.9 -80.4 194C-103.7 178.1 -121.9 162.9 -147.8 147.8C-173.7 132.7 -207.3 117.6 -224.5 93C-241.7 68.4 -242.3 34.2 -243 0L0 0Z" fill="#FBAE3C"></path></g><g transform="translate(0, 540)"><path d="M0 -243C22.5 -218.7 45 -194.3 77.3 -186.6C109.6 -178.9 151.6 -187.8 171.8 -171.8C192 -155.9 190.4 -115.1 198.6 -82.3C206.9 -49.5 224.9 -24.7 243 0L0 0Z" fill="#FBAE3C"></path></g></svg>