<svg id="visual" viewBox="0 0 675 900" width="675" height="900" xmlns="http://www.w3.org/2000/svg" xmlns:xlink="http://www.w3.org/1999/xlink" version="1.1"><rect x="0" y="0" width="675" height="900" fill="#EFEFE8"></rect><defs><linearGradient id="grad1_0" x1="0%" y1="0%" x2="100%" y2="100%"><stop offset="30%" stop-color="#efefe8" stop-opacity="1"></stop><stop offset="70%" stop-color="#efefe8" stop-opacity="1"></stop></linearGradient></defs><defs><linearGradient id="grad2_0" x1="0%" y1="0%" x2="100%" y2="100%"><stop offset="30%" stop-color="#efefe8" stop-opacity="1"></stop><stop offset="70%" stop-color="#efefe8" stop-opacity="1"></stop></linearGradient></defs><g transform="translate(675, 0)"><path d="M0 225C-22 217.3 -44.1 209.7 -65.8 202.6C-87.6 195.5 -109 189 -129.3 178C-149.6 166.9 -168.7 151.3 -182 132.3C-195.4 113.2 -203 90.6 -209.2 68C-215.4 45.4 -220.2 22.7 -225 0L0 0Z" fill="#0A5E2A"></path></g><g transform="translate(0, 900)"><path d="M0 -225C22.1 -218.6 44.2 -212.3 67.1 -206.4C89.9 -200.5 113.4 -195 132.3 -182C151.1 -169.1 165.4 -148.6 176.4 -128.1C187.3 -107.7 195 -87.2 202.6 -65.8C210.1 -44.5 217.6 -22.2 225 0L0 0Z" fill="#0A5E2A"></path></g></svg>