<svg id="visual" viewBox="0 0 450 900" width="450" height="900" xmlns="http://www.w3.org/2000/svg" xmlns:xlink="http://www.w3.org/1999/xlink" version="1.1"><rect x="0" y="0" width="450" height="900" fill="#f0edcc"></rect><defs><linearGradient id="grad1_0" x1="0%" y1="100%" x2="100%" y2="0%"><stop offset="30%" stop-color="#f0edcc" stop-opacity="1"></stop><stop offset="70%" stop-color="#f0edcc" stop-opacity="1"></stop></linearGradient></defs><defs><linearGradient id="grad2_0" x1="0%" y1="100%" x2="100%" y2="0%"><stop offset="30%" stop-color="#f0edcc" stop-opacity="1"></stop><stop offset="70%" stop-color="#f0edcc" stop-opacity="1"></stop></linearGradient></defs><g transform="translate(450, 900)"><path d="M-202.5 0C-190.8 -31.5 -179.1 -63 -163.7 -94.5C-148.3 -126 -129.1 -157.4 -101.3 -175.4C-73.4 -193.4 -36.7 -197.9 0 -202.5L0 0Z" fill="#00333f"></path></g><g transform="translate(0, 0)"><path d="M202.5 0C199.1 38.6 195.6 77.3 175.4 101.2C155.1 125.2 118 134.5 86 149C54 163.4 27 182.9 0 202.5L0 0Z" fill="#00333f"></path></g></svg>