<svg id="visual" viewBox="0 0 450 900" width="450" height="900" xmlns="http://www.w3.org/2000/svg" xmlns:xlink="http://www.w3.org/1999/xlink" version="1.1"><rect x="0" y="0" width="450" height="900" fill="#f0edcc"></rect><defs><linearGradient id="grad1_0" x1="0%" y1="0%" x2="100%" y2="100%"><stop offset="30%" stop-color="#f0edcc" stop-opacity="1"></stop><stop offset="70%" stop-color="#f0edcc" stop-opacity="1"></stop></linearGradient></defs><defs><linearGradient id="grad2_0" x1="0%" y1="0%" x2="100%" y2="100%"><stop offset="30%" stop-color="#f0edcc" stop-opacity="1"></stop><stop offset="70%" stop-color="#f0edcc" stop-opacity="1"></stop></linearGradient></defs><g transform="translate(450, 0)"><path d="M0 202.5C-31.5 190.8 -63 179.1 -94.5 163.7C-126 148.3 -157.4 129.1 -175.4 101.3C-193.4 73.4 -197.9 36.7 -202.5 0L0 0Z" fill="#00333f"></path></g><g transform="translate(0, 900)"><path d="M0 -202.5C38.6 -199.1 77.3 -195.6 101.2 -175.4C125.2 -155.1 134.5 -118 149 -86C163.4 -54 182.9 -27 202.5 0L0 0Z" fill="#00333f"></path></g></svg>