<svg id="visual" viewBox="0 0 900 600" width="900" height="600" xmlns="http://www.w3.org/2000/svg" xmlns:xlink="http://www.w3.org/1999/xlink" version="1.1"><rect x="0" y="0" width="900" height="600" fill="#EFEFE8"></rect><defs><linearGradient id="grad1_0" x1="33.3%" y1="0%" x2="100%" y2="100%"><stop offset="20%" stop-color="#efefe8" stop-opacity="1"></stop><stop offset="80%" stop-color="#efefe8" stop-opacity="1"></stop></linearGradient></defs><defs><linearGradient id="grad2_0" x1="0%" y1="0%" x2="66.7%" y2="100%"><stop offset="20%" stop-color="#efefe8" stop-opacity="1"></stop><stop offset="80%" stop-color="#efefe8" stop-opacity="1"></stop></linearGradient></defs><g transform="translate(900, 0)"><path d="M0 216.3C-20.8 208.9 -41.6 201.4 -63.7 195.9C-85.7 190.5 -109.1 187 -127.2 175C-145.2 163 -158.1 142.5 -169.1 122.8C-180.1 103.2 -189.3 84.3 -196.9 64C-204.4 43.6 -210.4 21.8 -216.3 0L0 0Z" fill="#0A5E2A"></path></g><g transform="translate(0, 600)"><path d="M0 -216.3C22 -212.5 44.1 -208.6 65.8 -202.6C87.6 -196.5 109 -188.3 127.2 -175C145.3 -161.7 160 -143.4 170.7 -124C181.4 -104.6 188 -84.2 195 -63.3C201.9 -42.5 209.1 -21.3 216.3 0L0 0Z" fill="#0A5E2A"></path></g></svg>