<svg id="visual" viewBox="0 0 900 600" width="900" height="600" xmlns="http://www.w3.org/2000/svg" xmlns:xlink="http://www.w3.org/1999/xlink" version="1.1"><rect x="0" y="0" width="900" height="600" fill="#f0edcc"></rect><defs><linearGradient id="grad1_0" x1="33.3%" y1="0%" x2="100%" y2="100%"><stop offset="20%" stop-color="#f0edcc" stop-opacity="1"></stop><stop offset="80%" stop-color="#f0edcc" stop-opacity="1"></stop></linearGradient></defs><defs><linearGradient id="grad2_0" x1="0%" y1="0%" x2="66.7%" y2="100%"><stop offset="20%" stop-color="#f0edcc" stop-opacity="1"></stop><stop offset="80%" stop-color="#f0edcc" stop-opacity="1"></stop></linearGradient></defs><g transform="translate(900, 0)"><path d="M0 243.4C-44.3 238 -88.7 232.7 -121.7 210.8C-154.7 188.9 -176.5 150.4 -194.9 112.5C-213.3 74.6 -228.3 37.3 -243.4 0L0 0Z" fill="#00333f"></path></g><g transform="translate(0, 600)"><path d="M0 -243.4C43.9 -237.8 87.7 -232.1 121.7 -210.8C155.6 -189.4 179.7 -152.3 198.3 -114.5C216.9 -76.7 230.2 -38.4 243.4 0L0 0Z" fill="#00333f"></path></g></svg>