<svg id="visual" viewBox="0 0 900 600" width="900" height="600" xmlns="http://www.w3.org/2000/svg" xmlns:xlink="http://www.w3.org/1999/xlink" version="1.1"><rect x="0" y="0" width="900" height="600" fill="#f0edcc"></rect><defs><linearGradient id="grad1_0" x1="33.3%" y1="100%" x2="100%" y2="0%"><stop offset="20%" stop-color="#f0edcc" stop-opacity="1"></stop><stop offset="80%" stop-color="#f0edcc" stop-opacity="1"></stop></linearGradient></defs><defs><linearGradient id="grad2_0" x1="0%" y1="100%" x2="66.7%" y2="0%"><stop offset="20%" stop-color="#f0edcc" stop-opacity="1"></stop><stop offset="80%" stop-color="#f0edcc" stop-opacity="1"></stop></linearGradient></defs><g transform="translate(900, 600)"><path d="M-243.4 0C-238 -44.3 -232.7 -88.7 -210.8 -121.7C-188.9 -154.7 -150.4 -176.5 -112.5 -194.9C-74.6 -213.3 -37.3 -228.3 0 -243.4L0 0Z" fill="#00333f"></path></g><g transform="translate(0, 0)"><path d="M243.4 0C237.8 43.9 232.1 87.7 210.8 121.7C189.4 155.6 152.3 179.7 114.5 198.3C76.7 216.9 38.4 230.2 0 243.4L0 0Z" fill="#00333f"></path></g></svg>